<svg xmlns="http://www.w3.org/2000/svg" xmlns:xlink="http://www.w3.org/1999/xlink" width="316" viewBox="0 0 236.87999 85.499998" height="114" preserveAspectRatio="xMidYMid meet"><defs><g></g><clipPath id="5b1d0ab21d"><path d="M 10 31 L 84 31 L 84 71.878906 L 10 71.878906 Z M 10 31 " clip-rule="nonzero"></path></clipPath><clipPath id="202318c390"><path d="M 5 8.5 L 95.84375 8.5 L 95.84375 67 L 5 67 Z M 5 8.5 " clip-rule="nonzero"></path></clipPath></defs><g clip-path="url(#5b1d0ab21d)"><path fill="#7ece8f" d="M 10.484375 72.269531 L 22.667969 72.269531 L 25.644531 54.269531 C 21.15625 56.980469 16.652344 59.957031 12.171875 63.199219 Z M 50.6875 41.25 L 46.941406 49.839844 L 44.53125 44.074219 C 41.402344 45.578125 38.222656 47.179688 35.007812 48.917969 L 44.734375 72.269531 L 48.792969 72.269531 L 64.765625 35.585938 C 60.300781 37.210938 55.582031 39.09375 50.6875 41.25 Z M 76.21875 31.726562 C 72.851562 32.757812 69.257812 33.957031 65.457031 35.332031 L 70.84375 72.269531 L 83.03125 72.269531 Z M 76.21875 31.726562 " fill-opacity="1" fill-rule="nonzero"></path></g><g clip-path="url(#202318c390)"><path fill="#7ece8f" d="M 95.683594 13.566406 L 87.464844 29.570312 C 87.441406 27.523438 87.09375 25.476562 86.53125 23.503906 C 74.757812 26.613281 26.976562 42.296875 5.003906 66.347656 C 5.546875 65.46875 16.222656 47.269531 81.917969 13.367188 C 80.101562 10.40625 78.535156 8.53125 78.535156 8.53125 Z M 95.683594 13.566406 " fill-opacity="1" fill-rule="nonzero"></path></g><path fill="#7ece8f" d="M 30.605469 10.707031 L 21.925781 10.707031 L 14.265625 51.933594 C 18.34375 48.375 22.859375 44.707031 27.839844 40.933594 L 27.855469 40.933594 L 28.9375 34.335938 L 30.78125 38.765625 C 33.605469 36.683594 36.582031 34.589844 39.699219 32.496094 Z M 30.605469 10.707031 " fill-opacity="1" fill-rule="nonzero"></path><path fill="#7ece8f" d="M 72.6875 10.707031 L 64.019531 10.707031 L 60.035156 19.828125 C 64.160156 17.457031 68.488281 15.085938 73.027344 12.726562 Z M 72.6875 10.707031 " fill-opacity="1" fill-rule="nonzero"></path><g fill="#7ece8f" fill-opacity="1"><g transform="translate(85.604186, 69.366776)"><g><path d="M 14.109375 -3.921875 C 18.003906 -3.921875 19.953125 -7.066406 19.953125 -13.359375 C 19.953125 -16.535156 19.515625 -18.945312 18.640625 -20.59375 C 17.765625 -22.238281 16.296875 -23.0625 14.234375 -23.0625 C 12.179688 -23.0625 10.671875 -22.273438 9.703125 -20.703125 C 8.742188 -19.128906 8.265625 -16.984375 8.265625 -14.265625 C 8.265625 -9.222656 9.191406 -6.0625 11.046875 -4.78125 C 11.867188 -4.207031 12.890625 -3.921875 14.109375 -3.921875 Z M 1.765625 -13.515625 C 1.765625 -16.160156 2.15625 -18.457031 2.9375 -20.40625 C 3.726562 -22.351562 4.785156 -23.847656 6.109375 -24.890625 C 8.648438 -26.816406 11.457031 -27.78125 14.53125 -27.78125 C 16.675781 -27.78125 18.488281 -27.429688 19.96875 -26.734375 C 21.457031 -26.035156 22.625 -25.226562 23.46875 -24.3125 C 24.3125 -23.40625 25.023438 -22.082031 25.609375 -20.34375 C 26.203125 -18.613281 26.5 -16.570312 26.5 -14.21875 C 26.5 -9.28125 25.300781 -5.539062 22.90625 -3 C 20.507812 -0.46875 17.441406 0.796875 13.703125 0.796875 C 9.960938 0.796875 7.035156 -0.40625 4.921875 -2.8125 C 2.816406 -5.226562 1.765625 -8.796875 1.765625 -13.515625 Z M 1.765625 -13.515625 "></path></g></g></g><g fill="#7ece8f" fill-opacity="1"><g transform="translate(113.924978, 69.366776)"><g><path d="M 5.09375 -6 L 5.09375 -20.859375 C 5.09375 -21.429688 4.992188 -21.832031 4.796875 -22.0625 C 4.597656 -22.300781 4.25 -22.4375 3.75 -22.46875 L 1.5 -22.640625 L 1.5 -26.984375 L 10.5625 -26.984375 L 10.5625 -22.953125 C 11.207031 -24.347656 12.207031 -25.5 13.5625 -26.40625 C 14.925781 -27.320312 16.492188 -27.78125 18.265625 -27.78125 C 20.035156 -27.78125 21.722656 -27.390625 23.328125 -26.609375 L 23.328125 -18.609375 L 18.34375 -18.234375 L 18.34375 -20.703125 C 18.34375 -21.421875 18.164062 -21.867188 17.8125 -22.046875 C 17.414062 -22.222656 16.929688 -22.3125 16.359375 -22.3125 C 14.929688 -22.3125 13.757812 -21.800781 12.84375 -20.78125 C 11.9375 -19.757812 11.484375 -18.460938 11.484375 -16.890625 L 11.484375 -4.453125 L 16.140625 -4.234375 L 16.140625 0 L 1.765625 0 L 1.765625 -4.078125 L 3.546875 -4.234375 C 4.078125 -4.304688 4.46875 -4.457031 4.71875 -4.6875 C 4.96875 -4.925781 5.09375 -5.363281 5.09375 -6 Z M 5.09375 -6 "></path></g></g></g><g fill="#7ece8f" fill-opacity="1"><g transform="translate(138.70567, 69.366776)"><g><path d="M 15.234375 -27.78125 C 17.910156 -27.78125 20.035156 -27.128906 21.609375 -25.828125 C 23.191406 -24.523438 23.984375 -22.691406 23.984375 -20.328125 C 23.984375 -18.753906 23.640625 -17.367188 22.953125 -16.171875 C 22.273438 -14.972656 21.4375 -14.035156 20.4375 -13.359375 C 19.4375 -12.679688 18.222656 -12.125 16.796875 -11.6875 C 14.398438 -10.976562 11.695312 -10.625 8.6875 -10.625 C 8.789062 -8.726562 9.378906 -7.195312 10.453125 -6.03125 C 11.523438 -4.875 13.171875 -4.296875 15.390625 -4.296875 C 17.609375 -4.296875 19.828125 -5.082031 22.046875 -6.65625 L 24.078125 -2.3125 C 23.367188 -1.664062 22.164062 -1 20.46875 -0.3125 C 18.769531 0.363281 16.828125 0.703125 14.640625 0.703125 C 10.273438 0.703125 7.070312 -0.503906 5.03125 -2.921875 C 3 -5.335938 1.984375 -8.65625 1.984375 -12.875 C 1.984375 -17.09375 3.144531 -20.628906 5.46875 -23.484375 C 7.789062 -26.347656 11.046875 -27.78125 15.234375 -27.78125 Z M 12.78125 -15.53125 C 14.09375 -15.757812 15.300781 -16.273438 16.40625 -17.078125 C 17.519531 -17.890625 18.078125 -18.847656 18.078125 -19.953125 C 18.078125 -22.128906 17.003906 -23.21875 14.859375 -23.21875 C 12.859375 -23.21875 11.320312 -22.421875 10.25 -20.828125 C 9.175781 -19.242188 8.582031 -17.34375 8.46875 -15.125 C 10.039062 -15.164062 11.476562 -15.300781 12.78125 -15.53125 Z M 12.78125 -15.53125 "></path></g></g></g><g fill="#7ece8f" fill-opacity="1"><g transform="translate(164.666396, 69.366776)"><g><path d="M 11.484375 -26.984375 L 11.484375 -4.453125 L 14.53125 -4.296875 L 14.53125 0 L 1.765625 0 L 1.765625 -4.078125 L 3.546875 -4.234375 C 4.578125 -4.347656 5.09375 -4.921875 5.09375 -5.953125 L 5.09375 -20.859375 C 5.09375 -21.472656 4.992188 -21.882812 4.796875 -22.09375 C 4.597656 -22.3125 4.25 -22.421875 3.75 -22.421875 L 1.875 -22.53125 L 1.875 -26.984375 Z M 4.71875 -31.609375 C 3.96875 -32.347656 3.59375 -33.289062 3.59375 -34.4375 C 3.59375 -35.582031 3.96875 -36.535156 4.71875 -37.296875 C 5.46875 -38.066406 6.453125 -38.453125 7.671875 -38.453125 C 8.890625 -38.453125 9.878906 -38.066406 10.640625 -37.296875 C 11.410156 -36.535156 11.796875 -35.582031 11.796875 -34.4375 C 11.796875 -33.289062 11.410156 -32.347656 10.640625 -31.609375 C 9.878906 -30.878906 8.890625 -30.515625 7.671875 -30.515625 C 6.453125 -30.515625 5.46875 -30.878906 4.71875 -31.609375 Z M 4.71875 -31.609375 "></path></g></g></g><g fill="#7ece8f" fill-opacity="1"><g transform="translate(180.543196, 69.366776)"><g><path d="M 5.09375 -6 L 5.09375 -20.859375 C 5.09375 -21.429688 4.992188 -21.832031 4.796875 -22.0625 C 4.597656 -22.300781 4.25 -22.4375 3.75 -22.46875 L 1.5 -22.640625 L 1.5 -26.984375 L 10.5625 -26.984375 L 10.5625 -22.953125 C 11.207031 -24.347656 12.207031 -25.5 13.5625 -26.40625 C 14.925781 -27.320312 16.492188 -27.78125 18.265625 -27.78125 C 20.035156 -27.78125 21.722656 -27.390625 23.328125 -26.609375 L 23.328125 -18.609375 L 18.34375 -18.234375 L 18.34375 -20.703125 C 18.34375 -21.421875 18.164062 -21.867188 17.8125 -22.046875 C 17.414062 -22.222656 16.929688 -22.3125 16.359375 -22.3125 C 14.929688 -22.3125 13.757812 -21.800781 12.84375 -20.78125 C 11.9375 -19.757812 11.484375 -18.460938 11.484375 -16.890625 L 11.484375 -4.453125 L 16.140625 -4.234375 L 16.140625 0 L 1.765625 0 L 1.765625 -4.078125 L 3.546875 -4.234375 C 4.078125 -4.304688 4.46875 -4.457031 4.71875 -4.6875 C 4.96875 -4.925781 5.09375 -5.363281 5.09375 -6 Z M 5.09375 -6 "></path></g></g></g><g fill="#7ece8f" fill-opacity="1"><g transform="translate(205.323888, 69.366776)"><g><path d="M 25.859375 -25.90625 L 25.859375 -5.953125 C 25.859375 -5.378906 25.953125 -4.984375 26.140625 -4.765625 C 26.335938 -4.554688 26.691406 -4.4375 27.203125 -4.40625 L 28.90625 -4.296875 L 28.90625 0 L 20.390625 0 L 20.390625 -3.109375 L 20.21875 -3.171875 C 18.4375 -0.585938 15.988281 0.703125 12.875 0.703125 C 9.226562 0.703125 6.523438 -0.457031 4.765625 -2.78125 C 3.015625 -5.113281 2.140625 -8.300781 2.140625 -12.34375 C 2.140625 -17.195312 3.316406 -20.984375 5.671875 -23.703125 C 8.035156 -26.421875 11.582031 -27.78125 16.3125 -27.78125 C 19.34375 -27.78125 22.523438 -27.15625 25.859375 -25.90625 Z M 19.625 -8.53125 L 19.625 -22.421875 C 18.625 -22.890625 17.25 -23.125 15.5 -23.125 C 13.101562 -23.125 11.367188 -22.15625 10.296875 -20.21875 C 9.222656 -18.289062 8.6875 -15.734375 8.6875 -12.546875 C 8.6875 -6.753906 10.546875 -3.859375 14.265625 -3.859375 C 15.835938 -3.859375 17.125 -4.332031 18.125 -5.28125 C 19.125 -6.226562 19.625 -7.3125 19.625 -8.53125 Z M 19.625 -8.53125 "></path></g></g></g></svg>